<svg width="48" height="48" viewBox="0 0 48 48" fill="none" xmlns="http://www.w3.org/2000/svg">
<rect width="48" height="48" rx="24" fill="white"/>
<path d="M27.4919 12.1016C27.9775 11.8645 28.5679 12.0567 28.8106 12.5309L31.6952 18.1659C33.4685 18.2989 34.5812 18.6386 35.2993 19.5061C35.8699 20.1955 36.0545 21.0531 35.9866 22.2402H12.0134C11.9455 21.0531 12.1302 20.1955 12.7008 19.5061C13.4187 18.6386 14.5315 18.2989 16.3047 18.1659L19.1893 12.5309C19.4321 12.0567 20.0225 11.8645 20.508 12.1016C20.9935 12.3387 21.1903 12.9153 20.9476 13.3895L18.5429 18.087C19.1761 18.0802 19.8671 18.0802 20.6214 18.0802H27.3786C28.1329 18.0802 28.8238 18.0802 29.457 18.087L27.0524 13.3895C26.8095 12.9153 27.0064 12.3387 27.4919 12.1016Z" fill="#1A817F"/>
<path fill-rule="evenodd" clip-rule="evenodd" d="M12.934 27.3694C12.6627 26.1329 12.4305 25.0745 12.2656 24.1602H35.7365C35.5716 25.0745 35.3394 26.1328 35.0681 27.3692L34.5065 29.9294C33.8683 32.8382 33.5492 34.2926 32.4679 35.1464C31.3866 36.0002 29.8638 36.0002 26.8179 36.0002H21.1841C18.1383 36.0002 16.6154 36.0002 15.5342 35.1464C14.4529 34.2926 14.1338 32.8382 13.4956 29.9294L12.934 27.3694ZM21.38 26.0802C20.8372 26.0802 20.3971 26.51 20.3971 27.0402C20.3971 27.5703 20.8372 28.0002 21.38 28.0002H26.622C27.1648 28.0002 27.6049 27.5703 27.6049 27.0402C27.6049 26.51 27.1648 26.0802 26.622 26.0802H21.38Z" fill="#1A817F"/>
</svg>
